<svg width="102" height="38" viewBox="0 0 102 38" fill="none" xmlns="http://www.w3.org/2000/svg">
<g filter="url(#filter0_d_2124_259)">
<rect x="1" width="100" height="35" fill="#263866" fill-opacity="0.9"/>
<path d="M16.2869 23L14.2009 12.682H15.8669L16.8329 18.044C16.9262 18.5947 17.0196 19.1453 17.1129 19.696C17.2062 20.2467 17.2996 20.802 17.3929 21.362H17.4489C17.5609 20.802 17.6729 20.2467 17.7849 19.696C17.9062 19.1453 18.0276 18.5947 18.1489 18.044L19.4649 12.682H20.9069L22.2369 18.044C22.3582 18.5853 22.4749 19.136 22.5869 19.696C22.6989 20.2467 22.8156 20.802 22.9369 21.362H23.0069C23.1002 20.802 23.1889 20.2467 23.2729 19.696C23.3569 19.1453 23.4409 18.5947 23.5249 18.044L24.5049 12.682H26.0589L24.0289 23H22.0269L20.6409 17.274C20.5569 16.8633 20.4729 16.4667 20.3889 16.084C20.3142 15.692 20.2396 15.3 20.1649 14.908H20.1089C20.0342 15.3 19.9549 15.692 19.8709 16.084C19.7869 16.4667 19.7029 16.8633 19.6189 17.274L18.2609 23H16.2869ZM27.7467 23V12.682H33.8367V14.054H29.3707V16.924H33.1507V18.296H29.3707V21.614H33.9907V23H27.7467ZM36.1412 23V12.682H39.3472C40.0472 12.682 40.6679 12.766 41.2092 12.934C41.7599 13.102 42.1892 13.3727 42.4972 13.746C42.8145 14.11 42.9732 14.6 42.9732 15.216C42.9732 15.552 42.9125 15.8693 42.7912 16.168C42.6792 16.4667 42.5159 16.7327 42.3012 16.966C42.0865 17.19 41.8205 17.3533 41.5032 17.456V17.526C42.0912 17.6473 42.5765 17.9133 42.9592 18.324C43.3419 18.7253 43.5332 19.276 43.5332 19.976C43.5332 20.6573 43.3605 21.222 43.0152 21.67C42.6792 22.118 42.2125 22.454 41.6152 22.678C41.0272 22.8927 40.3505 23 39.5852 23H36.1412ZM37.7652 16.994H39.1512C39.9352 16.994 40.4999 16.854 40.8452 16.574C41.1999 16.294 41.3772 15.916 41.3772 15.44C41.3772 14.908 41.1952 14.53 40.8312 14.306C40.4672 14.0727 39.9212 13.956 39.1932 13.956H37.7652V16.994ZM37.7652 21.726H39.4032C40.2059 21.726 40.8265 21.5767 41.2652 21.278C41.7132 20.9793 41.9372 20.5173 41.9372 19.892C41.9372 19.3133 41.7179 18.8933 41.2792 18.632C40.8499 18.3613 40.2245 18.226 39.4032 18.226H37.7652V21.726ZM50.5191 17.442H51.9051V22.636C51.9051 23.0093 51.8491 23.294 51.7371 23.49C51.6344 23.6953 51.4384 23.8447 51.1491 23.938C50.8598 24.0313 50.4958 24.0873 50.0571 24.106C49.6278 24.134 49.1098 24.148 48.5031 24.148C48.4658 23.952 48.3958 23.7327 48.2931 23.49C48.1998 23.2473 48.1018 23.0373 47.9991 22.86C48.3071 22.8693 48.6104 22.8787 48.9091 22.888C49.2078 22.888 49.4691 22.888 49.6931 22.888C49.9264 22.888 50.0898 22.888 50.1831 22.888C50.3138 22.8787 50.4024 22.8553 50.4491 22.818C50.4958 22.7807 50.5191 22.7107 50.5191 22.608V17.442ZM46.1651 11.954H54.9011V13.172H46.1651V11.954ZM54.3971 11.954H54.7471L55.0551 11.87L56.0071 12.626C55.6151 13.018 55.1764 13.4147 54.6911 13.816C54.2058 14.2173 53.7018 14.6 53.1791 14.964C52.6564 15.3187 52.1524 15.6313 51.6671 15.902C51.6018 15.8087 51.5178 15.7107 51.4151 15.608C51.3218 15.496 51.2238 15.384 51.1211 15.272C51.0184 15.16 50.9298 15.0713 50.8551 15.006C51.2751 14.782 51.7138 14.5113 52.1711 14.194C52.6284 13.8673 53.0531 13.5313 53.4451 13.186C53.8464 12.8407 54.1638 12.5233 54.3971 12.234V11.954ZM44.8211 16.462H56.4271V17.722H44.8211V16.462ZM48.0971 14.866L48.7831 13.886C49.1751 14.0353 49.6044 14.2033 50.0711 14.39C50.5378 14.5673 51.0044 14.754 51.4711 14.95C51.9471 15.146 52.3951 15.3373 52.8151 15.524C53.2444 15.7013 53.6084 15.8647 53.9071 16.014L53.1931 17.148C52.9038 16.9987 52.5538 16.8307 52.1431 16.644C51.7418 16.448 51.3031 16.2473 50.8271 16.042C50.3604 15.8273 49.8891 15.622 49.4131 15.426C48.9464 15.2207 48.5078 15.034 48.0971 14.866ZM55.9791 16.462H56.2311L56.4691 16.364L57.5471 16.84C57.2018 17.4747 56.8191 18.114 56.3991 18.758C55.9791 19.3927 55.5638 19.934 55.1531 20.382L54.0331 19.724C54.2478 19.4627 54.4718 19.164 54.7051 18.828C54.9478 18.492 55.1764 18.142 55.3911 17.778C55.6151 17.4047 55.8111 17.0453 55.9791 16.7V16.462ZM65.1771 17.33L66.2411 16.798C66.5024 17.1247 66.7591 17.4793 67.0111 17.862C67.2631 18.2353 67.4871 18.6087 67.6831 18.982C67.8884 19.3553 68.0471 19.6913 68.1591 19.99L66.9971 20.606C66.9038 20.3073 66.7591 19.9713 66.5631 19.598C66.3671 19.2153 66.1478 18.828 65.9051 18.436C65.6718 18.0347 65.4291 17.666 65.1771 17.33ZM65.4151 13.648H70.6231V14.894H65.4151V13.648ZM70.0631 13.648H71.3371C71.3371 13.648 71.3371 13.69 71.3371 13.774C71.3371 13.858 71.3371 13.9513 71.3371 14.054C71.3371 14.1567 71.3371 14.236 71.3371 14.292C71.2811 15.8507 71.2204 17.176 71.1551 18.268C71.0991 19.3507 71.0338 20.2467 70.9591 20.956C70.8844 21.656 70.7958 22.2067 70.6931 22.608C70.5904 23 70.4691 23.2847 70.3291 23.462C70.1518 23.6953 69.9651 23.854 69.7691 23.938C69.5824 24.022 69.3491 24.0827 69.0691 24.12C68.8358 24.148 68.5184 24.162 68.1171 24.162C67.7158 24.162 67.3051 24.1527 66.8851 24.134C66.8758 23.938 66.8291 23.714 66.7451 23.462C66.6704 23.21 66.5724 22.9907 66.4511 22.804C66.9084 22.8413 67.3284 22.8647 67.7111 22.874C68.1031 22.8833 68.3878 22.888 68.5651 22.888C68.7051 22.888 68.8218 22.874 68.9151 22.846C69.0084 22.8087 69.0924 22.7433 69.1671 22.65C69.2884 22.5287 69.3911 22.2813 69.4751 21.908C69.5684 21.5347 69.6478 21.0073 69.7131 20.326C69.7878 19.6353 69.8531 18.7673 69.9091 17.722C69.9651 16.6673 70.0164 15.4027 70.0631 13.928V13.648ZM65.7511 11.17L67.1091 11.478C66.9224 12.15 66.6891 12.8173 66.4091 13.48C66.1291 14.1333 65.8258 14.7447 65.4991 15.314C65.1724 15.8833 64.8318 16.3827 64.4771 16.812C64.3931 16.7373 64.2764 16.6487 64.1271 16.546C63.9871 16.4433 63.8378 16.3453 63.6791 16.252C63.5298 16.1493 63.4038 16.07 63.3011 16.014C63.6651 15.622 64.0011 15.1693 64.3091 14.656C64.6171 14.1427 64.8924 13.5873 65.1351 12.99C65.3778 12.3927 65.5831 11.786 65.7511 11.17ZM60.7671 11.184L61.9431 11.618C61.7564 11.9633 61.5604 12.3273 61.3551 12.71C61.1591 13.0833 60.9584 13.4427 60.7531 13.788C60.5571 14.1333 60.3658 14.432 60.1791 14.684L59.2831 14.306C59.4604 14.026 59.6378 13.704 59.8151 13.34C60.0018 12.976 60.1791 12.6073 60.3471 12.234C60.5151 11.8513 60.6551 11.5013 60.7671 11.184ZM62.4471 12.808L63.5951 13.284C63.2591 13.816 62.8904 14.376 62.4891 14.964C62.0971 15.5427 61.6958 16.1073 61.2851 16.658C60.8838 17.1993 60.5011 17.666 60.1371 18.058L59.3111 17.638C59.5818 17.3207 59.8618 16.966 60.1511 16.574C60.4404 16.1727 60.7251 15.7527 61.0051 15.314C61.2851 14.8753 61.5464 14.4413 61.7891 14.012C62.0411 13.5827 62.2604 13.1813 62.4471 12.808ZM58.5831 14.292L59.2271 13.396C59.4791 13.6107 59.7358 13.8487 59.9971 14.11C60.2678 14.3713 60.5104 14.628 60.7251 14.88C60.9491 15.132 61.1218 15.3653 61.2431 15.58L60.5571 16.602C60.4358 16.378 60.2678 16.1307 60.0531 15.86C59.8384 15.5893 59.6004 15.3187 59.3391 15.048C59.0871 14.768 58.8351 14.516 58.5831 14.292ZM62.0551 16.112L63.0071 15.706C63.2031 16.0047 63.3898 16.3313 63.5671 16.686C63.7538 17.0313 63.9171 17.372 64.0571 17.708C64.1971 18.044 64.2998 18.3427 64.3651 18.604L63.3431 19.08C63.2778 18.8187 63.1751 18.52 63.0351 18.184C62.9044 17.8387 62.7504 17.484 62.5731 17.12C62.4051 16.756 62.2324 16.42 62.0551 16.112ZM58.5551 17.4C59.1991 17.3813 59.9644 17.3533 60.8511 17.316C61.7471 17.2787 62.6618 17.2413 63.5951 17.204L63.5811 18.268C62.7038 18.324 61.8358 18.38 60.9771 18.436C60.1184 18.492 59.3484 18.5387 58.6671 18.576L58.5551 17.4ZM62.3491 19.528L63.3431 19.206C63.5391 19.6353 63.7258 20.102 63.9031 20.606C64.0804 21.1007 64.2064 21.53 64.2811 21.894L63.2171 22.258C63.1518 21.894 63.0351 21.4553 62.8671 20.942C62.7084 20.4287 62.5358 19.9573 62.3491 19.528ZM59.2551 19.29L60.3751 19.486C60.2911 20.1487 60.1651 20.802 59.9971 21.446C59.8384 22.09 59.6518 22.636 59.4371 23.084C59.3624 23.0373 59.2644 22.9813 59.1431 22.916C59.0218 22.8507 58.8911 22.79 58.7511 22.734C58.6204 22.6687 58.5084 22.622 58.4151 22.594C58.6391 22.1647 58.8164 21.656 58.9471 21.068C59.0871 20.48 59.1898 19.8873 59.2551 19.29ZM60.8791 17.96H62.0551V24.204H60.8791V17.96Z" fill="#F5F5F5"/>
<rect x="76.5" y="14.5" width="9" height="9" fill="#3B4B75" stroke="#B4BBC6"/>
<rect x="78.5" y="11.5" width="9" height="9" fill="#3B4B75" stroke="#B4BBC6"/>
</g>
<defs>
<filter id="filter0_d_2124_259" x="0" y="0" width="102" height="38" filterUnits="userSpaceOnUse" color-interpolation-filters="sRGB">
<feFlood flood-opacity="0" result="BackgroundImageFix"/>
<feColorMatrix in="SourceAlpha" type="matrix" values="0 0 0 0 0 0 0 0 0 0 0 0 0 0 0 0 0 0 127 0" result="hardAlpha"/>
<feOffset dy="2"/>
<feGaussianBlur stdDeviation="0.5"/>
<feComposite in2="hardAlpha" operator="out"/>
<feColorMatrix type="matrix" values="0 0 0 0 0.56709 0 0 0 0 0.56709 0 0 0 0 0.56709 0 0 0 0.25 0"/>
<feBlend mode="normal" in2="BackgroundImageFix" result="effect1_dropShadow_2124_259"/>
<feBlend mode="normal" in="SourceGraphic" in2="effect1_dropShadow_2124_259" result="shape"/>
</filter>
</defs>
</svg>
