<svg width="30" height="32" viewBox="0 0 30 32" fill="none" xmlns="http://www.w3.org/2000/svg">
<g filter="url(#filter0_d_1519_263)">
<path d="M17.2808 11.0075C17.2122 11.0075 17.1443 11.021 17.0809 11.0473C17.0175 11.0735 16.9599 11.112 16.9114 11.1605C16.8629 11.2091 16.8244 11.2667 16.7981 11.33C16.7719 11.3934 16.7583 11.4614 16.7583 11.53V13.8263L14.8333 11.2687C14.7854 11.1909 14.7188 11.1263 14.6396 11.0807C14.5603 11.0351 14.471 11.0099 14.3796 11.0075C14.311 11.0075 14.243 11.021 14.1796 11.0473C14.1162 11.0735 14.0586 11.112 14.0101 11.1605C13.9616 11.2091 13.9231 11.2667 13.8969 11.33C13.8706 11.3934 13.8571 11.4614 13.8571 11.53V15.435C13.8571 15.5036 13.8706 15.5716 13.8969 15.635C13.9231 15.6983 13.9616 15.7559 14.0101 15.8045C14.0586 15.853 14.1162 15.8915 14.1796 15.9177C14.243 15.944 14.311 15.9575 14.3796 15.9575C14.4482 15.9575 14.5162 15.944 14.5795 15.9177C14.6429 15.8915 14.7005 15.853 14.7491 15.8045C14.7976 15.7559 14.8361 15.6983 14.8623 15.635C14.8886 15.5716 14.9021 15.5036 14.9021 15.435V13.125L16.8133 15.7512C16.862 15.8245 16.9351 15.8781 17.0196 15.9025C17.083 15.9167 17.1487 15.9167 17.2121 15.9025C17.2724 15.9244 17.3367 15.9333 17.4007 15.9286C17.4647 15.9238 17.5269 15.9056 17.5833 15.875L17.7208 15.7788C17.8174 15.6792 17.8716 15.5461 17.8721 15.4075V11.53C17.8727 11.4552 17.8573 11.3811 17.8269 11.3128C17.7964 11.2445 17.7517 11.1835 17.6956 11.1339C17.6396 11.0844 17.5735 11.0475 17.502 11.0257C17.4304 11.0038 17.355 10.9977 17.2808 11.0075ZM10.9833 14.8713H9.52584V11.53C9.52584 11.3914 9.47079 11.2585 9.37281 11.1605C9.27482 11.0625 9.14192 11.0075 9.00334 11.0075C8.86477 11.0075 8.73187 11.0625 8.63388 11.1605C8.53589 11.2585 8.48084 11.3914 8.48084 11.53V15.435C8.48084 15.5736 8.53589 15.7065 8.63388 15.8045C8.73187 15.9025 8.86477 15.9575 9.00334 15.9575H10.9833C11.1232 15.9575 11.2576 15.9029 11.3577 15.8053C11.4579 15.7077 11.516 15.5748 11.5196 15.435C11.5233 15.3623 11.5122 15.2896 11.4869 15.2213C11.4617 15.1531 11.4228 15.0907 11.3726 15.0379C11.3224 14.9852 11.262 14.9432 11.1951 14.9145C11.1282 14.8859 11.0561 14.8712 10.9833 14.8713ZM12.5096 11.0075C12.3697 11.0075 12.2354 11.0621 12.1352 11.1597C12.035 11.2573 11.9769 11.3902 11.9733 11.53V15.435C11.9769 15.5748 12.035 15.7077 12.1352 15.8053C12.2354 15.9029 12.3697 15.9575 12.5096 15.9575C12.6482 15.9575 12.7811 15.9025 12.8791 15.8045C12.977 15.7065 13.0321 15.5736 13.0321 15.435V11.53C13.0321 11.3914 12.977 11.2585 12.8791 11.1605C12.7811 11.0625 12.6482 11.0075 12.5096 11.0075ZM22.9596 0.75H6.70709C5.2167 0.753631 3.78838 1.3473 2.73451 2.40117C1.68064 3.45504 1.08697 4.88336 1.08334 6.37375V22.6262C1.08697 24.1166 1.68064 25.545 2.73451 26.5988C3.78838 27.6527 5.2167 28.2464 6.70709 28.25H22.9596C24.45 28.2464 25.8783 27.6527 26.9322 26.5988C27.986 25.545 28.5797 24.1166 28.5833 22.6262V6.37375C28.5797 4.88336 27.986 3.45504 26.9322 2.40117C25.8783 1.3473 24.45 0.753631 22.9596 0.75ZM23.3858 17.635C23.3317 17.7169 23.272 17.795 23.2071 17.8687C22.8792 18.2723 22.5106 18.6409 22.1071 18.9688C19.3571 21.54 14.7371 24.62 14.1183 24.1388C13.4996 23.6575 14.9983 21.7188 13.3896 21.3888C13.2755 21.4031 13.16 21.4031 13.0458 21.3888C8.31584 20.7288 4.79584 17.415 4.79584 13.4412C4.79584 8.9725 9.31959 5.35625 14.8883 5.35625C20.4571 5.35625 24.9808 8.9725 24.9808 13.4412C24.9331 14.9782 24.3715 16.4548 23.3858 17.635ZM21.0346 11.0213H18.9583C18.8897 11.0213 18.8218 11.0348 18.7584 11.061C18.695 11.0873 18.6374 11.1258 18.5889 11.1743C18.5404 11.2228 18.5019 11.2804 18.4756 11.3438C18.4494 11.4072 18.4358 11.4751 18.4358 11.5438V15.4487C18.4358 15.5873 18.4909 15.7202 18.5889 15.8182C18.6869 15.9162 18.8198 15.9712 18.9583 15.9712H20.9933C21.1319 15.9712 21.2648 15.9162 21.3628 15.8182C21.4608 15.7202 21.5158 15.5873 21.5158 15.4487C21.5158 15.3801 21.5023 15.3122 21.4761 15.2488C21.4498 15.1854 21.4113 15.1278 21.3628 15.0793C21.3143 15.0308 21.2567 14.9923 21.1933 14.966C21.1299 14.9398 21.062 14.9263 20.9933 14.9263H19.5771V14.1012H21.0346C21.1744 14.0977 21.3073 14.0396 21.4049 13.9394C21.5025 13.8392 21.5571 13.7049 21.5571 13.565C21.5571 13.4264 21.502 13.2935 21.4041 13.1955C21.3061 13.0975 21.1732 13.0425 21.0346 13.0425H19.5771V12.2037H21.0346C21.1032 12.2037 21.1712 12.1902 21.2345 12.164C21.2979 12.1377 21.3555 12.0992 21.4041 12.0507C21.4526 12.0022 21.4911 11.9446 21.5173 11.8812C21.5436 11.8178 21.5571 11.7499 21.5571 11.6812C21.5787 11.6022 21.5814 11.5192 21.565 11.4389C21.5487 11.3586 21.5136 11.2833 21.4628 11.2191C21.4119 11.1549 21.3467 11.1035 21.2723 11.0691C21.1979 11.0347 21.1165 11.0183 21.0346 11.0213Z" fill="#F5F5F5"/>
</g>
<defs>
<filter id="filter0_d_1519_263" x="0.0833435" y="0.75" width="29.5" height="30.5" filterUnits="userSpaceOnUse" color-interpolation-filters="sRGB">
<feFlood flood-opacity="0" result="BackgroundImageFix"/>
<feColorMatrix in="SourceAlpha" type="matrix" values="0 0 0 0 0 0 0 0 0 0 0 0 0 0 0 0 0 0 127 0" result="hardAlpha"/>
<feOffset dy="2"/>
<feGaussianBlur stdDeviation="0.5"/>
<feComposite in2="hardAlpha" operator="out"/>
<feColorMatrix type="matrix" values="0 0 0 0 0.56709 0 0 0 0 0.56709 0 0 0 0 0.56709 0 0 0 0.25 0"/>
<feBlend mode="normal" in2="BackgroundImageFix" result="effect1_dropShadow_1519_263"/>
<feBlend mode="normal" in="SourceGraphic" in2="effect1_dropShadow_1519_263" result="shape"/>
</filter>
</defs>
</svg>
