<svg width="31" height="32" viewBox="0 0 31 32" fill="none" xmlns="http://www.w3.org/2000/svg">
<g filter="url(#filter0_d_1519_266)">
<path d="M18.351 14.7989C18.351 13.3109 17.1351 12.1001 15.6407 12.1001C14.1465 12.1001 12.9308 13.3109 12.9308 14.7989C12.9308 16.2873 14.1465 17.4978 15.6407 17.4978C17.1351 17.4978 18.351 16.2873 18.351 14.7989ZM22.3773 0.75H8.62265C4.83307 0.75 1.75 3.82056 1.75 7.59467V9.50179H11.8631C12.9302 8.74473 14.2335 8.29751 15.6407 8.29751C17.0479 8.29751 18.3514 8.74473 19.4186 9.50179H29.25V7.59467C29.25 3.82053 26.1669 0.75 22.3773 0.75ZM25.1607 7.25981C25.1607 7.67807 24.8172 8.02034 24.3971 8.02034H22.0376C21.6175 8.02034 21.274 7.67807 21.274 7.25981V4.9098C21.274 4.49157 21.6175 4.14928 22.0376 4.14928H24.3971C24.8172 4.14928 25.1607 4.49151 25.1607 4.9098V7.25981ZM22.169 14.7989C22.169 18.3841 19.2403 21.3004 15.6407 21.3004C12.041 21.3004 9.11257 18.3841 9.11257 14.7989C9.11257 13.8119 9.3358 12.8758 9.73277 12.0368H1.75V21.4053C1.75 25.1797 4.83307 28.25 8.62265 28.25H22.3774C26.1669 28.25 29.25 25.1797 29.25 21.4053V12.0368H21.5488C21.9458 12.8758 22.169 13.8119 22.169 14.7989Z" fill="#F5F5F5"/>
</g>
<defs>
<filter id="filter0_d_1519_266" x="0.75" y="0.75" width="29.5" height="30.5" filterUnits="userSpaceOnUse" color-interpolation-filters="sRGB">
<feFlood flood-opacity="0" result="BackgroundImageFix"/>
<feColorMatrix in="SourceAlpha" type="matrix" values="0 0 0 0 0 0 0 0 0 0 0 0 0 0 0 0 0 0 127 0" result="hardAlpha"/>
<feOffset dy="2"/>
<feGaussianBlur stdDeviation="0.5"/>
<feComposite in2="hardAlpha" operator="out"/>
<feColorMatrix type="matrix" values="0 0 0 0 0.56709 0 0 0 0 0.56709 0 0 0 0 0.56709 0 0 0 0.25 0"/>
<feBlend mode="normal" in2="BackgroundImageFix" result="effect1_dropShadow_1519_266"/>
<feBlend mode="normal" in="SourceGraphic" in2="effect1_dropShadow_1519_266" result="shape"/>
</filter>
</defs>
</svg>
